Patient4_TMGait_0pt4_01_left_22_GRF.mot
version=1
nRows=78
nColumns=19
inDegrees=no
endheader
time	F1x	F1y	F1z	M1x	M1y	M1z	F2x	F2y	F2z	M2x	M2y	M2z	EC1x	EC1y	EC1z	EC2x	EC2y	EC2z
26.41	-5.3255	9.4344	-1.61	-1.9231	0.52094	8.58	-16.9473	743.5566	-55.3107	280.9029	60.3299	703.9055	-0.0592	0.0182	-0.0073	-0.0462	0.0165	0.9585
26.4225	-3.5808	7.0877	-1.104	-1.5489	0.33518	6.5614	-18.7182	748.0468	-58.6456	282.5783	63.516	706.5606	-0.0592	0.0182	-0.0073	-0.0462	0.0165	0.9585
26.435	-2.1144	5.1571	-0.64652	-1.2463	0.14865	4.9092	-19.9018	753.395	-61.1648	284.666	65.788	709.3636	-0.0592	0.0182	-0.0073	-0.0462	0.0165	0.9585
26.4475	-1.0034	3.7302	-0.27596	-1.028	-0.015916	3.6981	-20.4317	759.5224	-62.6845	287.1645	66.9862	712.2893	-0.0592	0.0182	-0.0073	-0.0462	0.0165	0.9585
26.46	-0.23906	2.7724	-0.0029162	-0.8873	-0.14536	2.9023	-20.3567	766.2548	-63.2057	290.029	67.142	715.2602	-0.0592	0.0182	-0.0073	-0.0462	0.0165	0.9585
26.4725	0.22843	2.1917	0.17873	-0.80718	-0.23505	2.4446	-19.8029	773.2719	-62.9003	293.1421	66.4514	718.0935	-0.0592	0.0182	-0.0073	-0.0462	0.0165	0.9585
26.485	0.46345	1.8705	0.29409	-0.76321	-0.29691	2.2144	-18.9066	780.078	-61.9594	296.3095	65.1103	720.4361	-0.0592	0.0182	-0.0073	-0.0462	0.0165	0.9585
26.4975	0.52312	1.6901	0.35891	-0.72876	-0.33846	2.0932	-17.7661	786.1518	-60.6106	299.3072	63.3306	721.9092	-0.0592	0.0182	-0.0073	-0.0462	0.0165	0.9585
26.51	0.46017	1.5168	0.40485	-0.67138	-0.38434	1.9366	-16.4414	790.9884	-58.9962	301.9064	61.2277	722.1321	-0.0592	0.0182	-0.0073	-0.0462	0.0165	0.9585
26.5225	0.3068	1.2307	0.43876	-0.56069	-0.44068	1.638	-14.9489	794.0327	-57.2628	303.8479	58.9085	720.6686	-0.0592	0.0182	-0.0073	-0.0462	0.0165	0.9585
26.535	0.10301	0.70554	0.48492	-0.36168	-0.52475	1.086	-13.2307	794.6088	-55.5312	304.8225	56.4433	716.9619	-0.0592	0.0182	-0.0073	-0.0462	0.0165	0.9585
26.5475	-0.13311	-0.16793	0.53306	-0.044868	-0.62259	0.19002	-11.1797	792.0254	-53.9745	304.5291	53.9479	710.4087	-0.0592	0.0182	-0.0073	-0.0462	0.0165	0.9585
26.56	-0.36989	-1.4529	0.59531	0.40652	-0.73507	-1.1081	-8.687	786.0185	-52.6505	302.8512	51.4389	700.7672	-0.0592	0.0182	-0.0073	-0.0462	0.0165	0.9585
26.5725	-0.56873	-3.1461	0.64647	0.98762	-0.82858	-2.7981	-5.6689	776.9321	-51.6029	299.9218	48.9403	688.3246	-0.0592	0.0182	-0.0073	-0.0462	0.0165	0.9585
26.585	-0.67879	-5.1204	0.67256	1.6545	-0.87442	-4.7574	-2.1272	765.6443	-50.8068	296.0931	46.445	673.8516	-0.0592	0.0182	-0.0073	-0.0462	0.0165	0.9585
26.5975	-0.61267	-7.0517	0.62052	2.2981	-0.79409	-6.6803	1.8799	753.389	-50.2899	291.8523	44.0125	658.4578	-0.0592	0.0182	-0.0073	-0.0462	0.0165	0.9585
26.61	-0.26965	-8.3722	0.44709	2.7267	-0.50913	-8.0149	6.2437	741.5109	-50.0661	287.7216	41.7001	643.3804	-0.0592	0.0182	-0.0073	-0.0462	0.0165	0.9585
26.6225	0.48394	-8.1835	0.076621	2.6356	0.097562	-7.9025	10.7929	731.1606	-50.1773	284.1414	39.6104	629.7135	-0.0592	0.0182	-0.0073	-0.0462	0.0165	0.9585
26.635	1.7719	-5.2259	-0.54758	1.6001	1.1216	-5.1202	15.3054	723.0752	-50.6157	281.3844	37.8216	618.2119	-0.0592	0.0182	-0.0073	-0.0462	0.0165	0.9585
26.6475	3.711	2.0992	-1.4957	-0.9177	2.6652	1.8779	19.5074	717.4308	-51.3459	279.4949	36.4162	609.1774	-0.0592	0.0182	-0.0073	-0.0462	0.0165	0.9585
26.66	6.3249	15.6445	-2.782	-5.5333	4.7474	14.907	23.0695	713.7226	-52.2602	278.2506	35.4329	602.3426	-0.0592	0.0182	-0.0073	-0.0462	0.0165	0.9585
26.6725	9.5245	37.2004	-4.378	-12.838	7.305	35.7152	25.6589	710.7973	-53.2109	277.1721	34.8797	596.8951	-0.0592	0.0182	-0.0073	-0.0462	0.0165	0.9585
26.685	12.9569	67.9817	-6.1227	-23.2209	10.0638	65.5189	27.0175	706.9471	-54.0028	275.5685	34.7	591.5411	-0.0592	0.0182	-0.0073	-0.0462	0.0165	0.9585
26.6975	15.9375	107.8531	-7.7036	-36.6061	12.4853	104.2341	26.9647	700.0951	-54.4205	272.6172	34.787	584.6333	-0.0592	0.0182	-0.0073	-0.0462	0.0165	0.9585
26.71	17.2959	154.1705	-8.5565	-52.0623	13.6299	149.3828	25.4889	688.1383	-54.2601	267.5058	34.9817	574.421	-0.0592	0.0182	-0.0073	-0.0462	0.0165	0.9585
26.7225	15.7597	200.9158	-7.8633	-67.5146	12.2975	195.2293	22.777	669.4854	-53.3628	259.6478	35.0915	559.4786	-0.0592	0.0182	-0.0073	-0.0462	0.0165	0.9585
26.735	11.746	240.6517	-4.839	-80.4346	7.8848	234.563	19.175	643.6769	-51.6642	248.926	34.94	539.2108	-0.0592	0.0182	-0.0073	-0.0462	0.0165	0.9585
26.7475	6.6422	269.592	-0.07357	-89.5881	1.4571	263.4871	15.2084	611.784	-49.2688	235.82	34.4222	514.219	-0.0592	0.0182	-0.0073	-0.0462	0.0165	0.9585
26.76	1.494	288.6673	5.6872	-95.3299	-5.8928	282.6692	11.4762	575.9003	-46.4877	221.1983	33.5573	485.933	-0.0592	0.0182	-0.0073	-0.0462	0.0165	0.9585
26.7725	-3.052	301.486	11.8366	-98.9207	-13.3475	295.4676	8.5358	538.2298	-43.6333	205.9694	32.3723	455.8931	-0.0592	0.0182	-0.0073	-0.0462	0.0165	0.9585
26.785	-6.8458	312.3943	17.7988	-101.866	-20.2955	306.0016	6.7265	500.4845	-40.8265	190.8381	30.8216	425.3598	-0.0592	0.0182	-0.0073	-0.0462	0.0165	0.9585
26.7975	-10.0826	325.0339	23.2867	-105.4214	-26.523	317.7911	6.1567	463.5472	-38.0125	176.1784	28.8191	395.0037	-0.0592	0.0182	-0.0073	-0.0462	0.0165	0.9585
26.81	-12.7696	341.6935	27.9891	-110.3872	-31.7471	332.926	6.6846	427.5969	-34.9858	162.0771	26.2487	365.0199	-0.0592	0.0182	-0.0073	-0.0462	0.0165	0.9585
26.8225	-14.8029	363.5674	32.0131	-117.168	-36.04	352.529	8.0383	392.3181	-31.5658	148.4148	23.0665	335.2441	-0.0592	0.0182	-0.0073	-0.0462	0.0165	0.9585
26.835	-15.8507	391.0127	35.4195	-125.884	-39.3618	376.8242	9.8231	357.1699	-27.6579	134.9701	19.3336	305.3426	-0.0592	0.0182	-0.0073	-0.0462	0.0165	0.9585
26.8475	-15.7754	423.5891	38.5959	-136.3672	-42.0424	405.4089	11.6037	321.6148	-23.357	121.5053	15.2769	274.9796	-0.0592	0.0182	-0.0073	-0.0462	0.0165	0.9585
26.86	-14.6414	460.1161	41.7241	-148.2194	-44.2838	437.1287	13.0001	285.3316	-18.8924	107.8554	11.2109	243.9633	-0.0592	0.0182	-0.0073	-0.0462	0.0165	0.9585
26.8725	-12.7581	499.3827	45.1402	-161.0201	-46.5161	470.9173	13.6695	248.3841	-14.6017	93.9971	7.5214	212.4287	-0.0592	0.0182	-0.0073	-0.0462	0.0165	0.9585
26.885	-10.4179	540.5717	48.7156	-174.5025	-48.7269	506.0297	13.4394	211.2912	-10.7902	80.0888	4.5162	180.8271	-0.0592	0.0182	-0.0073	-0.0462	0.0165	0.9585
26.8975	-7.911	583.2393	52.4251	-188.5156	-51.0004	542.1299	12.2574	175.052	-7.6903	66.4759	2.4037	150.0135	-0.0592	0.0182	-0.0073	-0.0462	0.0165	0.9585
26.91	-5.4342	626.9543	55.9715	-202.9194	-53.1279	578.859	10.287	140.9132	-5.3819	53.6191	1.2025	120.9932	-0.0592	0.0182	-0.0073	-0.0462	0.0165	0.9585
26.9225	-3.0923	670.8841	59.3187	-217.4228	-55.1185	615.5257	7.7717	110.1173	-3.82	41.9849	0.79367	94.811	-0.0592	0.0182	-0.0073	-0.0462	0.0165	0.9585
26.935	-1.0049	713.6712	62.2743	-231.56	-56.8269	650.9657	5.0858	83.4833	-2.8552	31.8928	0.93502	72.1215	-0.0592	0.0182	-0.0073	-0.0462	0.0165	0.9585
26.9475	0.75734	753.5151	64.9192	-244.7033	-58.353	683.6262	2.4964	61.2915	-2.2949	23.4609	1.375	53.1619	-0.0592	0.0182	-0.0073	-0.0462	0.0165	0.9585
26.96	2.099	788.5001	67.1769	-256.1896	-59.6481	711.8835	0.24745	43.3787	-1.9565	16.6401	1.8784	37.7846	-0.0592	0.0182	-0.0073	-0.0462	0.0165	0.9585
26.9725	3.0268	816.8926	69.127	-265.4178	-60.7896	734.2711	-1.4992	29.3222	-1.7035	11.2777	2.2702	25.6594	-0.0592	0.0182	-0.0073	-0.0462	0.0165	0.9585
26.985	3.5552	837.4262	70.692	-271.9605	-61.6954	749.7537	-2.6358	18.577	-1.4472	7.1744	2.4318	16.3507	-0.0592	0.0182	-0.0073	-0.0462	0.0165	0.9585
26.9975	3.8053	849.4489	71.874	-275.6012	-62.3286	757.8079	-3.0994	10.6327	-1.1565	4.1377	2.3164	9.4404	-0.0592	0.0182	-0.0073	-0.0462	0.0165	0.9585
27.01	3.8809	853.0436	72.5726	-276.377	-62.5552	758.5621	-2.9756	5.0714	-0.84822	2.0074	1.9671	4.5914	-0.0592	0.0182	-0.0073	-0.0462	0.0165	0.9585
27.0225	3.912	848.9132	72.7741	-274.536	-62.3264	752.667	-2.4796	1.503	-0.5574	0.63782	1.4963	1.4486	-0.0592	0.0182	-0.0073	-0.0462	0.0165	0.9585
27.035	3.9916	838.2569	72.4439	-270.497	-61.585	741.2008	-1.8704	-0.46192	-0.32128	-0.12453	1.0305	-0.29049	-0.0592	0.0182	-0.0073	-0.0462	0.0165	0.9585
27.0475	4.1965	822.6384	71.6444	-264.7981	-60.3731	725.5359	-1.2569	-1.3091	-0.14406	-0.45868	0.61771	-1.0637	-0.0592	0.0182	-0.0073	-0.0462	0.0165	0.9585
27.06	4.567	803.8175	70.4589	-258.044	-58.7614	707.1968	-0.75431	-1.4225	-0.026924	-0.51193	0.29883	-1.177	-0.0592	0.0182	-0.0073	-0.0462	0.0165	0.9585
27.0725	5.1254	783.602	69.0089	-250.8504	-56.8663	687.7358	-0.34914	-1.1228	0.041598	-0.40354	0.066722	-0.93526	-0.0592	0.0182	-0.0073	-0.0462	0.0165	0.9585
27.085	5.8699	763.6986	67.4123	-243.7969	-54.7996	668.6016	-0.078627	-0.62325	0.073704	-0.21619	-0.076778	-0.50536	-0.0592	0.0182	-0.0073	-0.0462	0.0165	0.9585
27.0975	6.7688	745.5594	65.7467	-237.3732	-52.6396	651.0078	0.091391	-0.082	0.087964	-0.0080973	-0.15353	-0.030223	-0.0592	0.0182	-0.0073	-0.0462	0.0165	0.9585
27.11	7.7888	730.2568	64.0784	-231.9407	-50.455	635.8204	0.17991	0.43168	0.084599	0.1908	-0.16893	0.4414	-0.0592	0.0182	-0.0073	-0.0462	0.0165	0.9585
27.1225	8.9138	718.4667	62.4374	-227.7229	-48.2757	623.5617	0.19965	0.85803	0.073188	0.35844	-0.14395	0.85421	-0.0592	0.0182	-0.0073	-0.0462	0.0165	0.9585
27.135	10.1475	710.4594	60.8826	-224.8011	-46.1468	614.4109	0.17164	1.1629	0.050727	0.48178	-0.0877	1.1694	-0.0592	0.0182	-0.0073	-0.0462	0.0165	0.9585
27.1475	11.4793	706.1702	59.4511	-223.1373	-44.0938	608.2763	0.092429	1.342	0.021364	0.55518	-0.0068193	1.3784	-0.0592	0.0182	-0.0073	-0.0462	0.0165	0.9585
27.16	12.8969	705.2947	58.2063	-222.6098	-42.1736	604.8865	-0.024591	1.3438	-0.012267	0.56003	0.090741	1.4035	-0.0592	0.0182	-0.0073	-0.0462	0.0165	0.9585
27.1725	14.3729	707.3911	57.1782	-223.0529	-40.4189	603.8767	-0.20251	1.1528	-0.045209	0.4834	0.20221	1.2348	-0.0592	0.0182	-0.0073	-0.0462	0.0165	0.9585
27.185	15.8802	711.978	56.4216	-224.2923	-38.8919	604.8552	-0.40163	0.69801	-0.079473	0.29756	0.31609	0.78554	-0.0592	0.0182	-0.0073	-0.0462	0.0165	0.9585
27.1975	17.4246	718.5913	55.9385	-226.1662	-37.5959	607.4372	-0.64863	-0.078685	-0.10263	-0.024034	0.42429	0.023592	-0.0592	0.0182	-0.0073	-0.0462	0.0165	0.9585
27.21	19.0593	726.7737	55.7531	-228.5177	-36.5449	611.2335	-0.87871	-1.2404	-0.11053	-0.50617	0.50701	-1.1139	-0.0592	0.0182	-0.0073	-0.0462	0.0165	0.9585
27.2225	20.8228	736.0161	55.8586	-231.1754	-35.7216	615.8221	-1.063	-2.783	-0.095176	-1.1494	0.5479	-2.6004	-0.0592	0.0182	-0.0073	-0.0462	0.0165	0.9585
27.235	22.7442	745.663	56.2952	-233.9185	-35.1547	620.6797	-1.1098	-4.6608	-0.042914	-1.9298	0.50437	-4.4047	-0.0592	0.0182	-0.0073	-0.0462	0.0165	0.9585
27.2475	24.7911	754.8899	57.0691	-236.4731	-34.853	625.1676	-0.90194	-6.6476	0.06427	-2.756	0.31419	-6.3006	-0.0592	0.0182	-0.0073	-0.0462	0.0165	0.9585
27.26	26.9164	762.7803	58.1931	-238.541	-34.845	628.5621	-0.273	-8.3482	0.24186	-3.4575	-0.10909	-7.9155	-0.0592	0.0182	-0.0073	-0.0462	0.0165	0.9585
27.2725	29.045	768.4577	59.6088	-239.8463	-35.1018	630.2025	0.9692	-9.0912	0.5014	-3.7485	-0.86377	-8.6092	-0.0592	0.0182	-0.0073	-0.0462	0.0165	0.9585
27.285	31.1805	771.2168	61.2357	-240.1681	-35.5594	629.5381	3.0349	-7.856	0.84413	-3.1981	-2.0422	-7.3988	-0.0592	0.0182	-0.0073	-0.0462	0.0165	0.9585
27.2975	33.3441	770.6002	62.978	-239.3606	-36.1263	626.221	6.0924	-3.2983	1.2473	-1.2353	-3.6942	-2.9969	-0.0592	0.0182	-0.0073	-0.0462	0.0165	0.9585
27.31	35.5823	766.3246	64.7728	-237.3318	-36.7381	620.0446	10.172	6.2525	1.6577	2.8432	-5.7853	6.2203	-0.0592	0.0182	-0.0073	-0.0462	0.0165	0.9585
27.3225	37.8473	758.1771	66.5129	-234.0165	-37.3223	610.9011	15.1172	22.5844	1.9596	9.7887	-8.1351	21.9751	-0.0592	0.0182	-0.0073	-0.0462	0.0165	0.9585
27.335	40.0479	745.9149	68.04	-229.3513	-37.7925	598.6826	20.3404	47.2501	1.9847	20.2461	-10.3385	45.7844	-0.0592	0.0182	-0.0073	-0.0462	0.0165	0.9585
27.3475	41.9921	729.188	69.0914	-223.2547	-38.0099	583.2361	24.7939	81.0047	1.4929	34.519	-11.7203	78.3789	-0.0592	0.0182	-0.0073	-0.0462	0.0165	0.9585
27.36	43.4393	707.5542	69.3375	-215.6308	-37.8072	564.3485	26.8555	123.066	0.22108	52.2537	-11.3521	119.0096	-0.0592	0.0182	-0.0073	-0.0462	0.0165	0.9585
27.3725	44.1519	680.6025	68.4536	-206.4064	-37.0182	541.7989	24.7168	170.3263	-2.167	72.1232	-8.189	164.6742	-0.0592	0.0182	-0.0073	-0.0462	0.0165	0.9585
